# xmcd
#
# Track frame offsets: 
#        150
#        25009
#        47007
#        72205
#        85655
#        112562
#        133091
#        144532
#        168641
#        188537
#        205154
#        221307
#        254315
#        281408
#        302102
#        319022
#
# Disc length: 4783 seconds
#
# Revision: 0
# Processed by: cddbd v1.5.2PL0 Copyright (c) Steve Scherf et al.
# Submitted via: ExactAudioCopy v1.1
#
DISCID=d612ad10
DTITLE=Various Artist - Akella Presents - vol.107 - Blues-Rock (women
DTITLE=+ men)  CD2
DYEAR=2017
DGENRE=Blues
TTITLE0=Tony Sarno - Livin' For The Rider
TTITLE1=Laura Cox Band - Hard Blues Shot
TTITLE2=Robin Trower - Make Up Your Mind
TTITLE3=Smokin' Aces - High Roller
TTITLE4=Jason Elmore and Hoodoo Witch - Evil Woman
TTITLE5=Sharon Lewis and Texas Fire - Chicago Woman
TTITLE6=Rhino Bucket - Forgiveness
TTITLE7=Rossington - Through My Eyes
TTITLE8=Hardbone - Barfly
TTITLE9=Angel Forrest - Wildflower
TTITLE10=Smokey Fingers - Thunderstorm
TTITLE11=Blue Touch - Reconsider Baby
TTITLE12=Deep Purple - Roadhouse Blues
TTITLE13=Ruthie Foster - War Pigs
TTITLE14=100 Watt Vipers - Brother
TTITLE15=The Devil And The Almighty Blues - Low
EXTD=
EXTT0=
EXTT1=
EXTT2=
EXTT3=
EXTT4=
EXTT5=
EXTT6=
EXTT7=
EXTT8=
EXTT9=
EXTT10=
EXTT11=
EXTT12=
EXTT13=
EXTT14=
EXTT15=
PLAYORDER=
